<svg class="logo__svg" viewBox="0 0 173 64" fill="none" xmlns="http://www.w3.org/2000/svg">
    <g clip-path="url(#clip0)">
    <path opacity="0.5" d="M167.962 39.4334L160.596 32.073L160.015 31.4928L160.596 30.9125L163.255 28.1944L167.075 24.2851C167.9 23.4605 168.603 22.5748 169.153 21.6586C170.62 19.307 171.323 16.6499 171.293 14.0234C171.293 13.0461 171.17 12.0994 170.957 11.1526C170.926 11.0304 170.895 10.8777 170.865 10.7556C170.834 10.6639 170.804 10.5723 170.804 10.4807C170.804 10.4502 170.773 10.4196 170.773 10.3891C170.743 10.2974 170.712 10.2058 170.682 10.1142C170.59 9.83933 170.498 9.56447 170.406 9.2896C170.345 9.1369 170.284 9.01473 170.223 8.86203C170.223 8.83149 170.193 8.80095 170.193 8.80095C170.162 8.70932 170.131 8.6177 170.07 8.52608C170.04 8.465 170.009 8.37338 169.979 8.31229C169.917 8.15959 169.826 8.00689 169.765 7.88472C169.704 7.76256 169.642 7.6404 169.581 7.51823C169.581 7.51823 169.581 7.48769 169.551 7.48769C169.49 7.33499 169.398 7.21283 169.306 7.06012C169.245 6.93796 169.153 6.81579 169.062 6.69363C169.031 6.63255 169.001 6.60201 168.97 6.57147C168.909 6.44931 168.817 6.35768 168.726 6.23552C168.634 6.11336 168.573 5.99119 168.481 5.89957C168.451 5.86903 168.42 5.80795 168.389 5.77741C168.237 5.59416 168.084 5.41092 167.931 5.22767C167.87 5.16659 167.809 5.07497 167.748 5.01389C167.534 4.76956 167.289 4.52524 167.045 4.28091C166.495 3.57847 165.883 3.05928 165.272 2.60117C164.661 2.14305 164.019 1.77656 163.347 1.44061C158.121 -1.15535 151.55 -0.239129 147.088 4.15875L134.863 16.3751L125.206 26.026L125.053 26.1787L122.272 28.9579L119.002 32.2257L118.604 32.6228L113.012 38.1812L108.183 43.0066V49.5118C108.183 54.887 111.178 59.5292 115.579 61.8809C117.565 62.9498 119.796 63.5301 122.211 63.5301C125.786 63.5301 128.69 62.4611 131.257 60.4149C131.41 60.2927 131.563 60.1706 131.685 60.0484C131.715 60.0179 131.746 59.9873 131.807 59.9568L131.838 59.9262C131.99 59.8041 132.143 59.6514 132.296 59.5292C132.541 59.2849 132.816 59.0406 133.06 58.7962C133.213 58.6435 133.335 58.5214 133.488 58.3687L135.352 56.4446L139.417 52.23L139.967 51.6497L140.028 51.5886L147.974 59.5292C150.572 62.0946 153.873 63.469 157.204 63.6522C158.304 63.7133 159.404 63.6522 160.504 63.469C163.255 62.9803 165.883 61.6671 167.992 59.5292C173.585 53.9708 173.585 45.0529 167.962 39.4334ZM136.3 10.6945C136.269 10.6029 136.269 10.5418 136.238 10.4502C136.208 10.3585 136.208 10.2669 136.177 10.1753C136.147 10.0531 136.116 9.93096 136.086 9.77825C136.086 9.71717 136.055 9.65609 136.025 9.59501C135.994 9.50339 135.963 9.4423 135.963 9.35068C135.933 9.2896 135.933 9.25906 135.902 9.19798C135.872 9.1369 135.872 9.07581 135.841 9.01473C135.75 8.70932 135.627 8.40392 135.505 8.09851C135.474 8.00689 135.413 7.91526 135.383 7.82364C135.291 7.6404 135.199 7.45715 135.108 7.27391C135.047 7.18228 135.016 7.06012 134.955 6.9685C134.772 6.63255 134.588 6.32714 134.374 6.02173C134.313 5.93011 134.252 5.86903 134.191 5.77741C134.099 5.65524 134.007 5.53308 133.916 5.41092C133.824 5.3193 133.763 5.19713 133.671 5.10551C133.488 4.86118 133.274 4.6474 133.06 4.43361C132.968 4.34199 132.877 4.25037 132.785 4.15875C132.418 3.79226 132.052 3.48685 131.654 3.18144C131.593 3.12036 131.501 3.05928 131.41 2.9982C131.104 2.75387 130.768 2.54008 130.432 2.35684C130.34 2.29576 130.248 2.23468 130.157 2.17359C130.004 2.08197 129.851 1.99035 129.698 1.92927C129.484 1.83764 129.301 1.71548 129.087 1.62386C128.965 1.56278 128.843 1.5017 128.72 1.47116C128.262 1.28791 127.773 1.10467 127.284 0.951962C127.192 0.921421 127.101 0.89088 127.009 0.860339C126.917 0.829798 126.856 0.829798 126.764 0.799258C126.673 0.768717 126.55 0.738176 126.428 0.707635C126.031 0.616013 125.634 0.52439 125.236 0.463309C125.053 0.432768 124.9 0.402227 124.717 0.402227C124.717 0.402227 124.717 0.402227 124.686 0.402227C124.564 0.402227 124.442 0.371686 124.289 0.371686C124.014 0.341146 123.708 0.310605 123.433 0.310605C123.311 0.310605 123.189 0.310605 123.066 0.310605C122.455 0.280064 121.813 0.310605 121.202 0.371686C120.927 0.402227 120.621 0.432768 120.346 0.463309C119.491 0.585472 118.635 0.768717 117.779 1.04358C117.596 1.10467 117.412 1.16575 117.229 1.22683C117.046 1.28791 116.862 1.34899 116.679 1.44061C116.221 1.62386 115.793 1.8071 115.365 2.05143C115.12 2.17359 114.845 2.3263 114.601 2.479C114.509 2.54008 114.448 2.57062 114.356 2.63171C114.204 2.72333 114.02 2.84549 113.867 2.93711C113.776 2.9982 113.715 3.05928 113.623 3.08982C113.47 3.21198 113.317 3.3036 113.164 3.42577C112.553 3.91442 111.973 4.43361 111.453 5.01389C111.331 5.16659 111.208 5.3193 111.086 5.472C110.933 5.65524 110.781 5.83849 110.658 6.02173C110.567 6.1439 110.475 6.26606 110.383 6.41876C110.23 6.66309 110.047 6.93796 109.925 7.18228C109.833 7.33499 109.772 7.48769 109.68 7.60986C109.619 7.73202 109.558 7.85418 109.497 7.97635C109.405 8.15959 109.314 8.34284 109.253 8.52608C109.13 8.80095 109.008 9.10635 108.916 9.41176C108.855 9.62555 108.794 9.80879 108.733 10.0226C108.672 10.2364 108.611 10.4502 108.58 10.6639C108.336 11.7329 108.213 12.8629 108.213 14.0845V39.6166L112.553 35.2798L116.159 31.6455L117.412 30.3933L119.949 27.8279L122.363 25.3846L122.639 25.1097L131.929 15.8864L136.422 11.3664C136.391 11.1526 136.33 10.9083 136.3 10.6945Z" fill="url(#paint0_linear)"/>
    <path d="M136.3 10.6945C136.269 10.6029 136.269 10.5418 136.238 10.4502C136.208 10.3585 136.208 10.2669 136.177 10.1753C136.147 10.0531 136.116 9.93096 136.086 9.77825C136.086 9.71717 136.055 9.65609 136.025 9.59501C135.994 9.50339 135.963 9.4423 135.963 9.35068C135.933 9.2896 135.933 9.25906 135.902 9.19798C135.872 9.1369 135.872 9.07581 135.841 9.01473C135.75 8.70932 135.627 8.40392 135.505 8.09851C135.474 8.00689 135.413 7.91526 135.383 7.82364C135.291 7.6404 135.199 7.45715 135.108 7.27391C135.047 7.18228 135.016 7.06012 134.955 6.9685C134.772 6.63255 134.588 6.32714 134.374 6.02173C134.313 5.93011 134.252 5.86903 134.191 5.77741C134.099 5.65524 134.007 5.53308 133.916 5.41092C133.824 5.3193 133.763 5.19713 133.671 5.10551C133.488 4.86118 133.274 4.6474 133.06 4.43361C132.968 4.34199 132.877 4.25037 132.785 4.15875C132.418 3.79226 132.052 3.48685 131.654 3.18144C131.593 3.12036 131.501 3.05928 131.41 2.9982C131.104 2.75387 130.768 2.54008 130.432 2.35684C130.34 2.29576 130.248 2.23468 130.157 2.17359C130.004 2.08197 129.851 1.99035 129.698 1.92927C129.484 1.83764 129.301 1.71548 129.087 1.62386C128.965 1.56278 128.843 1.5017 128.72 1.47116C128.262 1.28791 127.773 1.10467 127.284 0.951962C127.192 0.921421 127.101 0.89088 127.009 0.860339C126.917 0.829798 126.856 0.829798 126.764 0.799258C126.673 0.768717 126.55 0.738176 126.428 0.707635C126.031 0.616013 125.634 0.52439 125.236 0.463309C125.053 0.432768 124.9 0.402227 124.717 0.402227C124.717 0.402227 124.717 0.402227 124.686 0.402227C124.564 0.402227 124.442 0.371686 124.289 0.371686C124.014 0.341146 123.708 0.310605 123.433 0.310605C123.311 0.310605 123.189 0.310605 123.066 0.310605C122.455 0.280064 121.813 0.310605 121.202 0.371686C120.927 0.402227 120.621 0.432768 120.346 0.463309C119.491 0.585472 118.635 0.768717 117.779 1.04358C117.596 1.10467 117.412 1.16575 117.229 1.22683C117.046 1.28791 116.862 1.34899 116.679 1.44061C116.221 1.62386 115.793 1.8071 115.365 2.05143C115.12 2.17359 114.845 2.3263 114.601 2.479C114.509 2.54008 114.448 2.57062 114.356 2.63171C114.204 2.72333 114.02 2.84549 113.867 2.93711C113.776 2.9982 113.715 3.05928 113.623 3.08982C113.47 3.21198 113.317 3.3036 113.164 3.42577C112.553 3.91442 111.973 4.43361 111.453 5.01389C111.331 5.16659 111.208 5.3193 111.086 5.472C110.933 5.65524 110.781 5.83849 110.658 6.02173C110.567 6.1439 110.475 6.26606 110.383 6.41876C110.23 6.66309 110.047 6.93796 109.925 7.18228C109.833 7.33499 109.772 7.48769 109.68 7.60986C109.619 7.73202 109.558 7.85418 109.497 7.97635C109.405 8.15959 109.314 8.34284 109.253 8.52608C109.13 8.80095 109.008 9.10635 108.916 9.41176C108.855 9.62555 108.794 9.80879 108.733 10.0226C108.672 10.2364 108.611 10.4502 108.58 10.6639C108.336 11.7329 108.213 12.8629 108.213 14.0845V39.6166L112.553 35.2798L116.19 31.6455L117.443 30.3933L119.98 27.8279L122.394 25.3846L122.669 25.1097L131.929 15.8864L136.422 11.3664C136.391 11.1526 136.33 10.9083 136.3 10.6945ZM167.962 39.4334L160.596 32.073L160.015 31.4928L160.596 30.9125L163.255 28.1944L167.075 24.2851C167.9 23.4605 168.603 22.5748 169.153 21.6586C170.62 19.307 171.323 16.6499 171.293 14.0234C171.293 13.0461 171.17 12.0994 170.957 11.1526C170.926 11.0304 170.895 10.8777 170.865 10.7556C170.834 10.6639 170.804 10.5723 170.804 10.4807C170.804 10.4502 170.773 10.4196 170.773 10.3891C170.743 10.2974 170.712 10.2058 170.682 10.1142C170.59 9.83933 170.498 9.56447 170.406 9.2896C170.345 9.1369 170.284 9.01473 170.223 8.86203C170.223 8.83149 170.193 8.80095 170.193 8.80095C170.162 8.70932 170.131 8.6177 170.07 8.52608C170.04 8.465 170.009 8.37338 169.979 8.31229C169.917 8.15959 169.826 8.00689 169.765 7.88472C169.704 7.76256 169.642 7.6404 169.581 7.51823C169.581 7.51823 169.581 7.48769 169.551 7.48769C169.49 7.33499 169.398 7.21283 169.306 7.06012C169.245 6.93796 169.153 6.81579 169.062 6.69363C169.031 6.63255 169.001 6.60201 168.97 6.57147C168.909 6.44931 168.817 6.35768 168.726 6.23552C168.634 6.11336 168.573 5.99119 168.481 5.89957C168.451 5.86903 168.42 5.80795 168.389 5.77741C168.237 5.59416 168.084 5.41092 167.931 5.22767C167.87 5.16659 167.809 5.07497 167.748 5.01389C167.534 4.76956 167.289 4.52524 167.045 4.28091C166.495 3.57847 165.883 3.05928 165.272 2.60117C164.661 2.14305 164.019 1.77656 163.347 1.44061C158.121 -1.15535 151.55 -0.239129 147.088 4.15875L134.863 16.3751L125.206 26.026L125.053 26.1787L122.272 28.9579L119.002 32.2257L118.604 32.6228L113.012 38.1812L108.183 43.0066V49.5118C108.183 54.887 111.178 59.5292 115.579 61.8809C117.565 62.9498 119.796 63.5301 122.211 63.5301C125.786 63.5301 128.69 62.4611 131.257 60.4149C131.41 60.2927 131.563 60.1706 131.685 60.0484C131.715 60.0179 131.746 59.9873 131.807 59.9568L131.838 59.9262C131.99 59.8041 132.143 59.6514 132.296 59.5292C132.541 59.2849 132.816 59.0406 133.06 58.7962C133.213 58.6435 133.335 58.5214 133.488 58.3687L135.352 56.4446L139.417 52.23L139.967 51.6497L140.028 51.5886L147.974 59.5292C150.572 62.0946 153.873 63.469 157.204 63.6522C158.304 63.7133 159.404 63.6522 160.504 63.469C163.255 62.9803 165.883 61.6671 167.992 59.5292C173.585 53.9708 173.585 45.0529 167.962 39.4334Z" fill="url(#paint1_linear)"/>
    <path opacity="0.5" d="M167.961 59.4987C165.853 61.6366 163.224 62.9498 160.474 63.4385C159.374 63.6217 158.273 63.6828 157.173 63.6217C153.842 63.408 150.541 62.0336 147.944 59.4987L139.997 51.5581L139.936 51.6192L139.386 52.1995L135.322 56.4141C136.33 46.4884 140.273 37.4483 146.293 30.149C151.519 23.7965 158.304 18.7878 166.067 15.7032C167.747 15.0313 169.489 14.4511 171.293 13.9624C171.323 16.6195 170.62 19.2765 169.153 21.5976C168.573 22.5138 167.87 23.4301 167.075 24.2241L163.255 28.1333L160.596 30.8515L160.015 31.4317L160.596 32.012L167.961 39.3723C173.585 45.0529 173.585 53.9709 167.961 59.4987Z" fill="url(#paint2_linear)"/>
    <path opacity="0.5" d="M117.413 30.4544L116.16 31.7065L112.553 35.3409L108.213 39.6777V22.7275C109.008 23.2467 109.772 23.7659 110.506 24.3157C111.636 25.1403 112.706 26.0259 113.776 26.9422C115.029 28.0722 116.251 29.2327 117.413 30.4544Z" fill="url(#paint3_linear)"/>
    <path opacity="0.5" d="M131.288 60.415C128.721 62.4612 125.817 63.5302 122.241 63.5302C119.827 63.5302 117.596 62.9193 115.609 61.881C111.208 59.5293 108.213 54.8871 108.213 49.5119V43.0067L113.012 38.1813L118.574 32.6229L118.971 32.2258C119.246 32.5312 119.491 32.8366 119.766 33.1726C123.922 38.2118 127.131 44.0451 129.148 50.4282C129.271 50.7946 129.393 51.1917 129.485 51.5582C130.34 54.3985 130.952 57.3609 131.288 60.415Z" fill="url(#paint4_linear)"/>
    <path opacity="0.5" d="M136.422 11.3971L131.93 15.8866L122.639 25.2015L122.364 25.4764C120.102 24.9266 117.902 24.1631 115.823 23.2163C114.295 22.5139 112.798 21.6893 111.392 20.8036C110.292 20.1012 109.191 19.3377 108.183 18.5131V14.1457C108.183 12.9241 108.305 11.7635 108.55 10.7252C108.611 10.5114 108.641 10.2976 108.702 10.0838C108.764 9.87002 108.825 9.68677 108.886 9.47298C108.977 9.16758 109.1 8.86217 109.222 8.5873C109.314 8.40406 109.375 8.22081 109.466 8.03757C109.528 7.9154 109.589 7.79324 109.65 7.67108C109.711 7.51837 109.803 7.36567 109.894 7.24351C110.047 6.96864 110.2 6.72431 110.353 6.47999C110.444 6.35782 110.536 6.23566 110.628 6.08296C110.781 5.89971 110.903 5.71647 111.056 5.53322C111.178 5.38052 111.3 5.22781 111.422 5.07511C111.942 4.49483 112.523 3.97564 113.134 3.48699C113.287 3.36482 113.44 3.24266 113.592 3.15104C113.653 3.08996 113.745 3.02888 113.837 2.99834C113.99 2.87617 114.142 2.78455 114.326 2.69293C114.418 2.63185 114.479 2.6013 114.57 2.54022C114.815 2.38752 115.059 2.26536 115.334 2.11265C115.762 1.89887 116.19 1.68508 116.649 1.50184C116.832 1.44075 117.015 1.34913 117.199 1.28805C117.382 1.22697 117.565 1.16589 117.749 1.10481C118.574 0.829938 119.43 0.646693 120.316 0.52453C120.591 0.493989 120.897 0.463449 121.172 0.432908C121.783 0.371826 122.425 0.371826 123.036 0.371826C123.158 0.371826 123.28 0.371826 123.403 0.371826C123.678 0.371826 123.983 0.402367 124.258 0.432908C124.381 0.432908 124.534 0.463449 124.656 0.463449C124.656 0.463449 124.656 0.463449 124.686 0.463449C124.87 0.493989 125.023 0.52453 125.206 0.52453C125.603 0.585612 126.001 0.677234 126.398 0.768857C126.49 0.799397 126.612 0.829938 126.734 0.860479C126.826 0.89102 126.887 0.89102 126.979 0.921561C127.07 0.952101 127.162 0.982642 127.254 1.01318C127.743 1.16589 128.201 1.31859 128.69 1.53238C128.812 1.59346 128.934 1.65454 129.057 1.68508C129.271 1.7767 129.485 1.86833 129.668 1.99049C129.821 2.08211 129.974 2.14319 130.126 2.23482C130.218 2.2959 130.31 2.35698 130.401 2.41806C130.738 2.6013 131.074 2.81509 131.379 3.05942C131.471 3.1205 131.532 3.18158 131.624 3.24266C132.021 3.54807 132.388 3.88402 132.755 4.21997C132.846 4.31159 132.938 4.40321 133.03 4.49483C133.244 4.70862 133.427 4.92241 133.641 5.16673C133.733 5.25835 133.794 5.38052 133.886 5.47214C133.977 5.5943 134.069 5.71647 134.161 5.83863C134.222 5.93025 134.283 5.99133 134.344 6.08296C134.558 6.38836 134.741 6.69377 134.925 7.02972C134.986 7.12134 135.016 7.24351 135.077 7.33513C135.169 7.51837 135.261 7.70162 135.353 7.88486C135.383 7.97648 135.444 8.06811 135.475 8.15973C135.597 8.46514 135.719 8.77055 135.811 9.07595C135.841 9.13704 135.841 9.19812 135.872 9.2592C135.872 9.32028 135.903 9.35082 135.933 9.4119C135.964 9.50352 135.994 9.56461 135.994 9.65623C136.025 9.71731 136.025 9.77839 136.055 9.83947C136.086 9.96164 136.117 10.0838 136.147 10.2365C136.178 10.3281 136.178 10.4197 136.208 10.5114C136.239 10.5725 136.239 10.6641 136.269 10.7557C136.33 10.9084 136.392 11.1527 136.422 11.3971Z" fill="url(#paint5_linear)"/>
    <path opacity="0.5" d="M165.272 2.60113C164.783 3.94493 164.202 5.25818 163.561 6.5409C161.054 11.458 157.479 15.7337 153.139 19.0626C150.694 20.9256 148.005 22.4832 145.132 23.7048C143.695 24.3156 142.229 24.8043 140.731 25.2319C137.644 26.087 134.374 26.5451 131.012 26.5451C129.026 26.5451 127.07 26.3924 125.145 26.087L134.802 16.4361L147.027 4.2198C151.519 -0.239161 158.09 -1.15538 163.316 1.44058C163.988 1.77653 164.63 2.17356 165.272 2.60113Z" fill="url(#paint6_linear)"/>
    <path opacity="0.5" d="M169.979 8.22067C168.97 10.8777 167.656 13.3821 166.067 15.7032C161.666 22.1473 155.278 27.1254 147.76 29.6909C147.271 29.8436 146.782 29.9963 146.293 30.149C143.757 30.8819 141.128 31.3706 138.408 31.5538C137.614 31.6149 136.819 31.6455 135.994 31.6455C131.135 31.6455 126.489 30.6987 122.272 28.9579L125.053 26.1787L125.206 26.026L134.863 16.3751L147.088 4.15875C151.519 -0.239129 158.09 -1.15535 163.316 1.44061C163.988 1.77656 164.63 2.14305 165.241 2.60117C165.883 3.05928 166.494 3.57847 167.045 4.15875C167.289 4.40307 167.503 4.6474 167.748 4.89172C167.809 4.95281 167.87 5.04443 167.931 5.10551C168.084 5.28876 168.237 5.472 168.389 5.65524C168.42 5.68579 168.45 5.74687 168.481 5.77741C168.573 5.89957 168.664 6.02173 168.725 6.11336C168.817 6.23552 168.878 6.32714 168.97 6.44931C169.001 6.47985 169.031 6.54093 169.062 6.57147C169.153 6.69363 169.214 6.8158 169.306 6.93796C169.398 7.06012 169.459 7.21283 169.551 7.36553C169.551 7.36553 169.551 7.39607 169.581 7.39607C169.642 7.51823 169.703 7.6404 169.765 7.76256C169.826 7.9458 169.887 8.06797 169.979 8.22067Z" fill="url(#paint7_linear)"/>
    <path opacity="0.5" d="M136.422 11.3971L131.93 15.8866L122.639 25.2015L122.364 25.4764L119.949 27.9196C118.146 27.0339 116.435 25.9956 114.815 24.835C112.37 23.0942 110.139 21.0174 108.213 18.7268V14.1457C108.213 12.9241 108.336 11.7635 108.58 10.7252C108.641 10.5114 108.672 10.2976 108.733 10.0838C108.794 9.87002 108.855 9.68677 108.916 9.47299C109.008 9.16758 109.13 8.86217 109.252 8.5873C109.344 8.40406 109.405 8.22081 109.497 8.03757C109.558 7.9154 109.619 7.79324 109.68 7.67108C109.741 7.51837 109.833 7.36567 109.925 7.24351C110.078 6.96864 110.23 6.72431 110.383 6.47999C110.475 6.35782 110.567 6.23566 110.658 6.08296C110.811 5.89971 110.933 5.71647 111.086 5.53322C111.208 5.38052 111.331 5.22781 111.453 5.07511C111.973 4.49483 112.553 3.97564 113.164 3.48699C113.317 3.36482 113.47 3.24266 113.623 3.15104C113.684 3.08996 113.776 3.02888 113.867 2.99834C114.02 2.87617 114.173 2.78455 114.356 2.69293C114.448 2.63185 114.509 2.60131 114.601 2.54022C114.845 2.38752 115.12 2.26536 115.365 2.11265C115.793 1.89887 116.221 1.68508 116.679 1.50184C116.862 1.44075 117.046 1.34913 117.229 1.28805C117.413 1.22697 117.596 1.16589 117.779 1.10481C118.604 0.829938 119.46 0.646693 120.347 0.52453C120.622 0.493989 120.927 0.463449 121.202 0.432908C121.813 0.371826 122.455 0.371826 123.067 0.371826C123.189 0.371826 123.311 0.371826 123.433 0.371826C123.708 0.371826 124.014 0.402367 124.289 0.432908C124.411 0.432908 124.564 0.463449 124.686 0.463449C124.686 0.463449 124.686 0.463449 124.717 0.463449C124.9 0.493989 125.053 0.52453 125.236 0.52453C125.634 0.585612 126.031 0.677234 126.428 0.768857C126.52 0.799397 126.642 0.829938 126.765 0.860479C126.856 0.89102 126.917 0.89102 127.009 0.921561C127.101 0.952101 127.192 0.982642 127.284 1.01318C127.773 1.16589 128.232 1.31859 128.721 1.53238C128.843 1.59346 128.965 1.65454 129.087 1.68508C129.301 1.7767 129.515 1.86833 129.698 1.99049C129.851 2.08211 130.004 2.14319 130.157 2.23482C130.249 2.2959 130.34 2.35698 130.432 2.41806C130.768 2.6013 131.104 2.81509 131.41 3.05942C131.502 3.1205 131.563 3.18158 131.654 3.24266C132.052 3.54807 132.419 3.88402 132.785 4.21997C132.877 4.31159 132.969 4.40321 133.06 4.49483C133.274 4.70862 133.458 4.92241 133.672 5.16673C133.763 5.25835 133.824 5.38052 133.916 5.47214C134.008 5.5943 134.099 5.71647 134.191 5.83863C134.252 5.93025 134.313 5.99133 134.374 6.08296C134.588 6.38836 134.772 6.69377 134.955 7.02972C135.016 7.12134 135.047 7.24351 135.108 7.33513C135.2 7.51837 135.291 7.70162 135.383 7.88486C135.414 7.97649 135.475 8.06811 135.505 8.15973C135.628 8.46514 135.75 8.77055 135.841 9.07596C135.872 9.13704 135.872 9.19812 135.903 9.2592C135.903 9.32028 135.933 9.35082 135.964 9.4119C135.994 9.50353 136.025 9.56461 136.025 9.65623C136.055 9.71731 136.055 9.77839 136.086 9.83947C136.117 9.96164 136.147 10.0838 136.178 10.2365C136.208 10.3281 136.208 10.4198 136.239 10.5114C136.269 10.5725 136.269 10.6641 136.3 10.7557C136.33 10.9084 136.392 11.1527 136.422 11.3971Z" fill="url(#paint8_linear)"/>
    <path opacity="0.5" d="M116.16 31.7066L112.523 35.3409L108.183 39.6777V30.7598C108.611 30.7292 109.039 30.7292 109.497 30.7292C110.567 30.7292 111.636 30.7903 112.645 30.943C113.867 31.1263 115.029 31.3706 116.16 31.7066Z" fill="url(#paint9_linear)"/>
    <path opacity="0.5" d="M132.571 53.7876C132.571 55.956 132.266 58.0328 131.716 60.0484C131.563 60.1706 131.41 60.2928 131.288 60.4149C128.72 62.4612 125.817 63.5301 122.241 63.5301C119.827 63.5301 117.596 62.9193 115.609 61.8809C111.208 59.5293 108.213 54.887 108.213 49.5119V43.0067L113.012 38.1812L118.574 32.6228C118.971 32.806 119.369 32.9893 119.766 33.1725C126.673 36.6236 131.624 43.4037 132.449 51.4359C132.541 52.1995 132.571 52.9935 132.571 53.7876Z" fill="url(#paint10_linear)"/>
    <path opacity="0.5" d="M167.962 59.4987C165.853 61.6366 163.225 62.9498 160.474 63.4385C159.374 63.6217 158.274 63.6828 157.173 63.6217C153.842 63.4079 150.541 62.0336 147.944 59.4987L139.998 51.5581L139.937 51.6192C139.937 51.4054 139.937 51.1916 139.937 50.9473C139.937 38.3645 150.144 28.1333 162.766 28.1333C162.919 28.1333 163.102 28.1333 163.255 28.1333L160.596 30.8514L160.016 31.4317L160.596 32.012L167.962 39.3723C173.585 45.0529 173.585 53.9708 167.962 59.4987Z" fill="url(#paint11_linear)"/>
    <path d="M0 12.8839H4.03472V19.0514H4.06528L8.61962 12.8839H13.4796L7.88604 19.9368L13.9075 28.0279H8.80302L4.06528 21.1581H4.03472V28.0279H0V12.8839Z" fill="#59544F"/>
    <path d="M28.732 22.2878C28.732 26.4402 26.0422 28.3027 22.0991 28.3027C18.1561 28.3027 15.4663 26.4402 15.4663 22.2878V12.8839H19.501V21.5856C19.501 23.5702 20.0512 25.28 22.0991 25.28C24.1471 25.28 24.6973 23.6007 24.6973 21.5856V12.8839H28.732V22.2878Z" fill="#59544F"/>
    <path d="M31.3909 24.3028C32.4302 24.8524 33.8973 25.3104 35.5479 25.3104C36.8317 25.3104 38.0543 25.0356 38.0543 23.8448C38.0543 21.0359 30.9019 22.8067 30.9019 17.3109C30.9019 13.6776 34.4475 12.67 37.5041 12.67C38.9713 12.67 40.3773 12.8838 41.4166 13.2196L41.1415 16.3339C40.1022 15.8454 38.9407 15.6317 37.7792 15.6317C36.7705 15.6317 35.0588 15.7233 35.0588 17.0361C35.0588 19.4787 42.2113 17.83 42.2113 23.2952C42.2113 27.2339 38.9102 28.272 35.5479 28.272C34.1419 28.272 32.369 28.0583 31.0241 27.6308L31.3909 24.3028Z" fill="#59544F"/>
    <path d="M47.1934 15.8761H43.4644V12.8839H54.9572V15.8761H51.2281V28.0279H47.1934V15.8761Z" fill="#59544F"/>
    <path d="M56.5466 12.8839H67.2142V15.7539H60.5813V18.8682H66.8474V21.7382H60.5813V25.1578H67.4587V28.0279H56.5466V12.8839Z" fill="#59544F"/>
    <path d="M69.812 12.8839H77.0256C79.7154 12.8839 81.9161 14.1052 81.9161 16.7004C81.9161 18.7156 80.9686 20.059 79.0124 20.517V20.5475C80.3267 20.8833 80.3878 22.0436 81.152 23.8755L82.6192 27.9973H78.4011L77.5452 25.28C76.7199 22.6847 76.2003 22.013 74.7026 22.013H73.8467V27.9973H69.812V12.8839ZM73.8467 19.1735H74.9165C76.2309 19.1735 77.8814 19.143 77.8814 17.4027C77.8814 15.9982 76.4754 15.7234 74.9165 15.7234H73.8467V19.1735Z" fill="#59544F"/>
    <path d="M84.5752 19.4178H91.0857V12.8839H93.1337V19.3873H99.6442V21.4635H93.1337V27.9668H91.0857V21.4635H84.5752V19.4178Z" fill="#59544F"/>
    <path d="M0 34.5616H4.82944C9.44491 34.5616 11.6151 36.1188 11.6151 39.5384C11.6151 42.5916 9.38378 44.4235 5.59359 44.4235H4.03472V49.7056H0V34.5616ZM4.03472 41.5535H5.07396C6.44944 41.5535 7.58038 41.065 7.58038 39.4773C7.58038 37.9507 6.48 37.4317 5.07396 37.4317H4.03472V41.5535Z" fill="#59544F"/>
    <path d="M18.0033 34.5616H22.9244L28.7625 49.7056H24.361L23.2301 46.4692H17.5448L16.3527 49.7056H12.2263L18.0033 34.5616ZM20.4486 37.7065H20.418L18.4618 43.6297H22.252L20.4486 37.7065Z" fill="#59544F"/>
    <path d="M30.26 34.5616H37.4736C40.1634 34.5616 42.3642 35.7829 42.3642 38.3782C42.3642 40.3933 41.4166 41.7367 39.4604 42.1947V42.2252C40.7747 42.5611 40.8359 43.7213 41.6 45.5532L43.0672 49.6751H38.8491L37.9932 46.9577C37.1679 44.3625 36.6483 43.7213 35.1506 43.7213H34.2947V49.7056H30.26V34.5616ZM34.2947 40.8513H35.3645C36.6789 40.8513 38.3295 40.8207 38.3295 39.0804C38.3295 37.6759 36.9234 37.4011 35.3645 37.4011H34.2947V40.8513Z" fill="#59544F"/>
    <path d="M47.438 37.5538H43.709V34.5616H55.2018V37.5538H51.4728V49.7056H47.438V37.5538Z" fill="#59544F"/>
    <path d="M56.9744 34.5616H62.1095L67.2446 44.851H67.2751L67.214 34.5616H70.9125V49.7056H65.8997L60.6117 39.3552H60.5812L60.7034 49.7056H57.0049V34.5616H56.9744Z" fill="#59544F"/>
    <path d="M73.6633 34.5616H84.3614V37.4317H77.7286V40.546H83.9946V43.416H77.7286V46.8356H84.606V49.7056H73.6633V34.5616Z" fill="#59544F"/>
    <path d="M86.929 34.5616H94.1425C96.8324 34.5616 99.0331 35.7829 99.0331 38.3782C99.0331 40.3933 98.0856 41.7367 96.1293 42.1947V42.2252C97.4437 42.5611 97.5048 43.7213 98.269 45.5532L99.7361 49.6751H95.518L94.6622 46.9577C93.8369 44.3625 93.3173 43.7213 91.8195 43.7213H90.9637V49.7056H86.929V34.5616ZM90.9637 40.8513H92.0335C93.3478 40.8513 94.9984 40.8207 94.9984 39.0804C94.9984 37.6759 93.5924 37.4011 92.0335 37.4011H90.9637V40.8513Z" fill="#59544F"/>
    </g>
    <defs>
    <linearGradient id="paint0_linear" x1="108.201" y1="31.8313" x2="172.187" y2="31.8313" gradientUnits="userSpaceOnUse">
    <stop offset="0" stop-color="#7ACCF0"/>
    <stop offset="0.5" stop-color="#2C8DC7"/>
    <stop offset="1" stop-color="#385DA0"/>
    </linearGradient>
    <linearGradient id="paint1_linear" x1="108.201" y1="31.8313" x2="172.187" y2="31.8313" gradientUnits="userSpaceOnUse">
    <stop offset="0" stop-color="#7ACCF0"/>
    <stop offset="0.5" stop-color="#2C8DC7"/>
    <stop offset="1" stop-color="#385DA0"/>
    </linearGradient>
    <linearGradient id="paint2_linear" x1="135.333" y1="38.8065" x2="172.186" y2="38.8065" gradientUnits="userSpaceOnUse">
    <stop offset="0" stop-color="#7ACCF0"/>
    <stop offset="0.5" stop-color="#2C8DC7"/>
    <stop offset="1" stop-color="#385DA0"/>
    </linearGradient>
    <linearGradient id="paint3_linear" x1="108.201" y1="31.2093" x2="117.403" y2="31.2093" gradientUnits="userSpaceOnUse">
    <stop offset="0" stop-color="#7ACCF0"/>
    <stop offset="0.5" stop-color="#2C8DC7"/>
    <stop offset="1" stop-color="#385DA0"/>
    </linearGradient>
    <linearGradient id="paint4_linear" x1="108.201" y1="47.8679" x2="131.281" y2="47.8679" gradientUnits="userSpaceOnUse">
    <stop offset="0" stop-color="#7ACCF0"/>
    <stop offset="0.5" stop-color="#2C8DC7"/>
    <stop offset="1" stop-color="#385DA0"/>
    </linearGradient>
    <linearGradient id="paint5_linear" x1="108.201" y1="12.9016" x2="136.431" y2="12.9016" gradientUnits="userSpaceOnUse">
    <stop offset="0" stop-color="#7ACCF0"/>
    <stop offset="0.5" stop-color="#2C8DC7"/>
    <stop offset="1" stop-color="#385DA0"/>
    </linearGradient>
    <linearGradient id="paint6_linear" x1="125.166" y1="13.2563" x2="165.259" y2="13.2563" gradientUnits="userSpaceOnUse">
    <stop offset="0" stop-color="#7ACCF0"/>
    <stop offset="0.5" stop-color="#2C8DC7"/>
    <stop offset="1" stop-color="#385DA0"/>
    </linearGradient>
    <linearGradient id="paint7_linear" x1="122.256" y1="15.8172" x2="169.969" y2="15.8172" gradientUnits="userSpaceOnUse">
    <stop offset="0" stop-color="#7ACCF0"/>
    <stop offset="0.5" stop-color="#2C8DC7"/>
    <stop offset="1" stop-color="#385DA0"/>
    </linearGradient>
    <linearGradient id="paint8_linear" x1="108.201" y1="14.1171" x2="136.431" y2="14.1171" gradientUnits="userSpaceOnUse">
    <stop offset="0" stop-color="#7ACCF0"/>
    <stop offset="0.5" stop-color="#2C8DC7"/>
    <stop offset="1" stop-color="#385DA0"/>
    </linearGradient>
    <linearGradient id="paint9_linear" x1="108.201" y1="35.2162" x2="116.153" y2="35.2162" gradientUnits="userSpaceOnUse">
    <stop offset="0" stop-color="#7ACCF0"/>
    <stop offset="0.5" stop-color="#2C8DC7"/>
    <stop offset="1" stop-color="#385DA0"/>
    </linearGradient>
    <linearGradient id="paint10_linear" x1="108.201" y1="48.0633" x2="132.577" y2="48.0633" gradientUnits="userSpaceOnUse">
    <stop offset="0" stop-color="#7ACCF0"/>
    <stop offset="0.5" stop-color="#2C8DC7"/>
    <stop offset="1" stop-color="#385DA0"/>
    </linearGradient>
    <linearGradient id="paint11_linear" x1="139.936" y1="45.9057" x2="172.187" y2="45.9057" gradientUnits="userSpaceOnUse">
    <stop offset="0" stop-color="#7ACCF0"/>
    <stop offset="0.5" stop-color="#2C8DC7"/>
    <stop offset="1" stop-color="#385DA0"/>
    </linearGradient>
    <clipPath id="clip0">
    <rect width="172.183" height="64" fill="white"/>
    </clipPath>
    </defs>
  </svg>